<mxfile host="app.diagrams.net" modified="2021-11-15T07:40:40.650Z" agent="5.0 (Windows NT 10.0; Win64; x64) AppleWebKit/537.36 (KHTML, like Gecko) Chrome/95.0.4638.69 Safari/537.36" etag="fsjgnJHAsYDzkDcVu6MN" version="15.7.3" type="github">
  <diagram id="HDeGJqnGRsr33dESraxP" name="Page-1">
    <mxGraphModel dx="1422" dy="794" grid="1" gridSize="10" guides="1" tooltips="1" connect="1" arrows="1" fold="1" page="1" pageScale="1" pageWidth="1169" pageHeight="1654" math="0" shadow="0">
      <root>
        <mxCell id="0" />
        <mxCell id="1" parent="0" />
        <mxCell id="1wso5RnG8KKqZ7zfT6vR-1" style="edgeStyle=orthogonalEdgeStyle;rounded=0;orthogonalLoop=1;jettySize=auto;html=1;exitX=1;exitY=0.5;exitDx=0;exitDy=0;entryX=0;entryY=0.5;entryDx=0;entryDy=0;" edge="1" parent="1" source="xBMI49Hp1zJtmZa3j3eM-1" target="xBMI49Hp1zJtmZa3j3eM-43">
          <mxGeometry relative="1" as="geometry" />
        </mxCell>
        <mxCell id="xBMI49Hp1zJtmZa3j3eM-1" value="Skill A" style="rounded=0;whiteSpace=wrap;html=1;" parent="1" vertex="1">
          <mxGeometry x="150" y="230" width="120" height="60" as="geometry" />
        </mxCell>
        <mxCell id="1wso5RnG8KKqZ7zfT6vR-3" style="edgeStyle=orthogonalEdgeStyle;rounded=0;orthogonalLoop=1;jettySize=auto;html=1;exitX=1;exitY=0.5;exitDx=0;exitDy=0;entryX=0;entryY=0.5;entryDx=0;entryDy=0;" edge="1" parent="1" source="xBMI49Hp1zJtmZa3j3eM-2" target="xBMI49Hp1zJtmZa3j3eM-46">
          <mxGeometry relative="1" as="geometry" />
        </mxCell>
        <mxCell id="xBMI49Hp1zJtmZa3j3eM-2" value="Skill B" style="rounded=0;whiteSpace=wrap;html=1;" parent="1" vertex="1">
          <mxGeometry x="150" y="395" width="120" height="60" as="geometry" />
        </mxCell>
        <mxCell id="1wso5RnG8KKqZ7zfT6vR-5" style="edgeStyle=orthogonalEdgeStyle;rounded=0;orthogonalLoop=1;jettySize=auto;html=1;exitX=1;exitY=0.5;exitDx=0;exitDy=0;" edge="1" parent="1" source="xBMI49Hp1zJtmZa3j3eM-3" target="xBMI49Hp1zJtmZa3j3eM-53">
          <mxGeometry relative="1" as="geometry" />
        </mxCell>
        <mxCell id="xBMI49Hp1zJtmZa3j3eM-3" value="Skill C" style="rounded=0;whiteSpace=wrap;html=1;" parent="1" vertex="1">
          <mxGeometry x="150" y="565" width="120" height="60" as="geometry" />
        </mxCell>
        <mxCell id="xBMI49Hp1zJtmZa3j3eM-20" value="释放技能" style="rounded=0;whiteSpace=wrap;html=1;" parent="1" vertex="1">
          <mxGeometry x="620" y="230" width="120" height="60" as="geometry" />
        </mxCell>
        <mxCell id="xBMI49Hp1zJtmZa3j3eM-26" value="释放技能" style="rounded=0;whiteSpace=wrap;html=1;" parent="1" vertex="1">
          <mxGeometry x="620" y="395" width="120" height="60" as="geometry" />
        </mxCell>
        <mxCell id="xBMI49Hp1zJtmZa3j3eM-29" value="释放技能" style="rounded=0;whiteSpace=wrap;html=1;" parent="1" vertex="1">
          <mxGeometry x="620" y="565" width="120" height="60" as="geometry" />
        </mxCell>
        <mxCell id="xBMI49Hp1zJtmZa3j3eM-39" style="edgeStyle=orthogonalEdgeStyle;rounded=0;orthogonalLoop=1;jettySize=auto;html=1;exitX=0.5;exitY=0;exitDx=0;exitDy=0;entryX=0.992;entryY=0.367;entryDx=0;entryDy=0;entryPerimeter=0;" parent="1" source="xBMI49Hp1zJtmZa3j3eM-30" target="xBMI49Hp1zJtmZa3j3eM-35" edge="1">
          <mxGeometry relative="1" as="geometry" />
        </mxCell>
        <mxCell id="xBMI49Hp1zJtmZa3j3eM-30" value="结束回合" style="rounded=0;whiteSpace=wrap;html=1;" parent="1" vertex="1">
          <mxGeometry x="890" y="392.5" width="120" height="60" as="geometry" />
        </mxCell>
        <mxCell id="xBMI49Hp1zJtmZa3j3eM-31" value="" style="endArrow=classic;html=1;rounded=0;entryX=0;entryY=0.5;entryDx=0;entryDy=0;" parent="1" target="xBMI49Hp1zJtmZa3j3eM-30" edge="1">
          <mxGeometry width="50" height="50" relative="1" as="geometry">
            <mxPoint x="740" y="260" as="sourcePoint" />
            <mxPoint x="790" y="210" as="targetPoint" />
          </mxGeometry>
        </mxCell>
        <mxCell id="xBMI49Hp1zJtmZa3j3eM-32" value="" style="endArrow=classic;html=1;rounded=0;exitX=1.042;exitY=0.625;exitDx=0;exitDy=0;exitPerimeter=0;" parent="1" source="xBMI49Hp1zJtmZa3j3eM-26" edge="1">
          <mxGeometry width="50" height="50" relative="1" as="geometry">
            <mxPoint x="720" y="320" as="sourcePoint" />
            <mxPoint x="890" y="430" as="targetPoint" />
          </mxGeometry>
        </mxCell>
        <mxCell id="xBMI49Hp1zJtmZa3j3eM-34" value="" style="endArrow=classic;html=1;rounded=0;exitX=1;exitY=0.5;exitDx=0;exitDy=0;entryX=0;entryY=0.75;entryDx=0;entryDy=0;" parent="1" source="xBMI49Hp1zJtmZa3j3eM-29" target="xBMI49Hp1zJtmZa3j3eM-30" edge="1">
          <mxGeometry width="50" height="50" relative="1" as="geometry">
            <mxPoint x="750" y="610" as="sourcePoint" />
            <mxPoint x="800" y="560" as="targetPoint" />
          </mxGeometry>
        </mxCell>
        <mxCell id="xBMI49Hp1zJtmZa3j3eM-36" style="edgeStyle=orthogonalEdgeStyle;rounded=0;orthogonalLoop=1;jettySize=auto;html=1;exitX=0.5;exitY=1;exitDx=0;exitDy=0;" parent="1" source="xBMI49Hp1zJtmZa3j3eM-35" target="xBMI49Hp1zJtmZa3j3eM-1" edge="1">
          <mxGeometry relative="1" as="geometry" />
        </mxCell>
        <mxCell id="xBMI49Hp1zJtmZa3j3eM-35" value="回合开始" style="rounded=0;whiteSpace=wrap;html=1;" parent="1" vertex="1">
          <mxGeometry x="150" y="70" width="120" height="60" as="geometry" />
        </mxCell>
        <mxCell id="xBMI49Hp1zJtmZa3j3eM-45" style="edgeStyle=orthogonalEdgeStyle;rounded=0;orthogonalLoop=1;jettySize=auto;html=1;exitX=0.5;exitY=1;exitDx=0;exitDy=0;entryX=0.442;entryY=0.017;entryDx=0;entryDy=0;entryPerimeter=0;" parent="1" source="xBMI49Hp1zJtmZa3j3eM-43" target="xBMI49Hp1zJtmZa3j3eM-2" edge="1">
          <mxGeometry relative="1" as="geometry" />
        </mxCell>
        <mxCell id="1wso5RnG8KKqZ7zfT6vR-2" style="edgeStyle=orthogonalEdgeStyle;rounded=0;orthogonalLoop=1;jettySize=auto;html=1;exitX=1;exitY=0.5;exitDx=0;exitDy=0;entryX=0;entryY=0.5;entryDx=0;entryDy=0;" edge="1" parent="1" source="xBMI49Hp1zJtmZa3j3eM-43" target="xBMI49Hp1zJtmZa3j3eM-20">
          <mxGeometry relative="1" as="geometry" />
        </mxCell>
        <mxCell id="xBMI49Hp1zJtmZa3j3eM-43" value="是否满足条件" style="rhombus;whiteSpace=wrap;html=1;" parent="1" vertex="1">
          <mxGeometry x="370" y="220" width="80" height="80" as="geometry" />
        </mxCell>
        <mxCell id="xBMI49Hp1zJtmZa3j3eM-52" style="edgeStyle=orthogonalEdgeStyle;rounded=0;orthogonalLoop=1;jettySize=auto;html=1;exitX=0.5;exitY=1;exitDx=0;exitDy=0;entryX=0.425;entryY=0.033;entryDx=0;entryDy=0;entryPerimeter=0;" parent="1" source="xBMI49Hp1zJtmZa3j3eM-46" target="xBMI49Hp1zJtmZa3j3eM-3" edge="1">
          <mxGeometry relative="1" as="geometry" />
        </mxCell>
        <mxCell id="1wso5RnG8KKqZ7zfT6vR-4" style="edgeStyle=orthogonalEdgeStyle;rounded=0;orthogonalLoop=1;jettySize=auto;html=1;exitX=1;exitY=0.5;exitDx=0;exitDy=0;" edge="1" parent="1" source="xBMI49Hp1zJtmZa3j3eM-46" target="xBMI49Hp1zJtmZa3j3eM-26">
          <mxGeometry relative="1" as="geometry" />
        </mxCell>
        <mxCell id="xBMI49Hp1zJtmZa3j3eM-46" value="是否满足条件" style="rhombus;whiteSpace=wrap;html=1;" parent="1" vertex="1">
          <mxGeometry x="370" y="385" width="80" height="80" as="geometry" />
        </mxCell>
        <mxCell id="xBMI49Hp1zJtmZa3j3eM-54" style="edgeStyle=orthogonalEdgeStyle;rounded=0;orthogonalLoop=1;jettySize=auto;html=1;exitX=0.5;exitY=1;exitDx=0;exitDy=0;" parent="1" source="xBMI49Hp1zJtmZa3j3eM-53" edge="1">
          <mxGeometry relative="1" as="geometry">
            <mxPoint x="950" y="460" as="targetPoint" />
          </mxGeometry>
        </mxCell>
        <mxCell id="1wso5RnG8KKqZ7zfT6vR-6" style="edgeStyle=orthogonalEdgeStyle;rounded=0;orthogonalLoop=1;jettySize=auto;html=1;exitX=1;exitY=0.5;exitDx=0;exitDy=0;entryX=0;entryY=0.5;entryDx=0;entryDy=0;" edge="1" parent="1" source="xBMI49Hp1zJtmZa3j3eM-53" target="xBMI49Hp1zJtmZa3j3eM-29">
          <mxGeometry relative="1" as="geometry" />
        </mxCell>
        <mxCell id="xBMI49Hp1zJtmZa3j3eM-53" value="是否满足条件" style="rhombus;whiteSpace=wrap;html=1;" parent="1" vertex="1">
          <mxGeometry x="370" y="555" width="80" height="80" as="geometry" />
        </mxCell>
      </root>
    </mxGraphModel>
  </diagram>
</mxfile>
